<svg xmlns="http://www.w3.org/2000/svg" viewBox="0 0 400 300" width="400" height="300">
  <defs>
    <linearGradient id="bg6" x1="0%" y1="0%" x2="100%" y2="100%">
      <stop offset="0%" style="stop-color:#fefce8"/><stop offset="100%" style="stop-color:#fef9c3"/>
    </linearGradient>
    <linearGradient id="body6" x1="0%" y1="0%" x2="0%" y2="100%">
      <stop offset="0%" style="stop-color:#f5f5f5"/><stop offset="100%" style="stop-color:#d4d4d4"/>
    </linearGradient>
  </defs>
  <rect width="400" height="300" fill="url(#bg6)" rx="12"/>
  <!-- Body -->
  <rect x="60" y="55" width="280" height="180" rx="12" fill="url(#body6)" stroke="#fcd34d" stroke-width="2"/>
  <!-- Screen -->
  <rect x="75" y="68" width="155" height="100" rx="6" fill="#1c1917"/>
  <text x="153" y="85" font-family="Arial" font-size="9" fill="#fbbf24" text-anchor="middle">W-200B URINE</text>
  <rect x="82" y="90" width="140" height="1" fill="#292524"/>
  <text x="84" y="104" font-family="Arial" font-size="8" fill="#86efac">GLU    Neg</text>
  <text x="84" y="117" font-family="Arial" font-size="8" fill="#86efac">PRO    Neg</text>
  <text x="84" y="130" font-family="Arial" font-size="8" fill="#fca5a5">BLOOD  Pos+</text>
  <text x="84" y="143" font-family="Arial" font-size="8" fill="#86efac">pH     6.5</text>
  <text x="84" y="156" font-family="Arial" font-size="8" fill="#86efac">LEU    Neg</text>
  <!-- Strip reader slot -->
  <rect x="238" y="68" width="88" height="30" rx="5" fill="#e5e7eb"/>
  <rect x="248" y="76" width="68" height="14" rx="3" fill="#9ca3af"/>
  <text x="282" y="87" font-family="Arial" font-size="7" fill="white" text-anchor="middle">STRIP READER</text>
  <!-- Thermal printer -->
  <rect x="238" y="105" width="88" height="55" rx="5" fill="#e5e7eb"/>
  <rect x="246" y="112" width="72" height="8" rx="2" fill="#d1d5db"/>
  <rect x="246" y="124" width="72" height="2" rx="1" fill="#f9fafb"/>
  <rect x="246" y="129" width="72" height="2" rx="1" fill="#f9fafb"/>
  <rect x="246" y="134" width="72" height="2" rx="1" fill="#f9fafb"/>
  <rect x="246" y="139" width="50" height="2" rx="1" fill="#f9fafb"/>
  <text x="282" y="121" font-family="Arial" font-size="7" fill="#6b7280" text-anchor="middle">PRINTER</text>
  <!-- Keypad -->
  <rect x="75" y="178" width="155" height="42" rx="4" fill="#e5e7eb"/>
  <circle cx="95" cy="190" r="6" fill="#d97706"/>
  <circle cx="113" cy="190" r="6" fill="#9ca3af"/>
  <circle cx="131" cy="190" r="6" fill="#9ca3af"/>
  <circle cx="149" cy="190" r="6" fill="#9ca3af"/>
  <circle cx="167" cy="190" r="6" fill="#22c55e"/>
  <circle cx="95" cy="208" r="6" fill="#9ca3af"/>
  <circle cx="113" cy="208" r="6" fill="#9ca3af"/>
  <circle cx="131" cy="208" r="6" fill="#9ca3af"/>
  <circle cx="149" cy="208" r="6" fill="#9ca3af"/>
  <circle cx="167" cy="208" r="6" fill="#ef4444"/>
  <!-- Label -->
  <text x="200" y="258" font-family="Arial" font-size="13" font-weight="bold" fill="#92400e" text-anchor="middle">W-200B</text>
  <text x="200" y="273" font-family="Arial" font-size="10" fill="#b45309" text-anchor="middle">Urine Analyzer</text>
</svg>
